<svg width="375" height="216" xmlns="http://www.w3.org/2000/svg" xmlns:xlink="http://www.w3.org/1999/xlink"><defs><path d="M2.698 15V9.781c0-1.187.93-2.047 2.211-2.047.266 0 .75.047.86.079V6.468a5.77 5.77 0 0 0-.672-.04c-1.117 0-2.086.579-2.336 1.4h-.125v-1.25H1.355V15h1.343zm7.891.148c1.844 0 3.156-.89 3.547-2.328h-1.344c-.351.742-1.086 1.14-2.172 1.14-1.43 0-2.36-1.054-2.43-2.718v-.062h6.055v-.516c0-2.617-1.383-4.234-3.656-4.234-2.313 0-3.797 1.718-3.797 4.367 0 2.664 1.461 4.351 3.797 4.351zm2.242-5.054h-4.64c.101-1.492 1.039-2.477 2.382-2.477 1.336 0 2.227.985 2.258 2.477zm6.516 4.969c.265 0 .523-.032.789-.079v-1.132c-.25.023-.383.03-.625.03-.875 0-1.25-.421-1.25-1.413V7.703h1.875V6.578H18.26v-2.18h-1.344v2.18h-1.36v1.125h1.36v5.11c0 1.609.695 2.25 2.43 2.25zm5.617.085c1.29 0 2.188-.53 2.61-1.468h.124V15h1.282V6.578h-1.344v4.984c0 1.477-.813 2.36-2.297 2.36-1.344 0-1.906-.703-1.906-2.219V6.578h-1.344v5.453c0 1.992.984 3.117 2.875 3.117zm7.89-.148V9.781c0-1.187.93-2.047 2.212-2.047.265 0 .75.047.859.079V6.468a5.77 5.77 0 0 0-.672-.04c-1.117 0-2.086.579-2.336 1.4h-.125v-1.25h-1.281V15h1.344zm6.25 0v-4.984c0-1.477.868-2.375 2.212-2.375 1.343 0 1.984.718 1.984 2.234V15h1.344V9.547c0-2-1.055-3.117-2.946-3.117-1.289 0-2.109.547-2.53 1.476h-.126V6.578h-1.281V15h1.344z" id="a"/><path d="M4.933 15.148c1.914 0 3.375-1.039 3.375-2.546 0-1.211-.765-1.899-2.351-2.282l-1.297-.312c-.992-.242-1.461-.602-1.461-1.18 0-.75.781-1.258 1.781-1.258 1.016 0 1.672.446 1.852 1.117H8.16C7.98 7.306 6.754 6.43 4.988 6.43c-1.79 0-3.14 1.054-3.14 2.453 0 1.219.718 1.898 2.296 2.281l1.446.352c.898.218 1.335.609 1.335 1.187 0 .774-.812 1.313-1.945 1.313-1.078 0-1.75-.454-1.976-1.164H1.62c.148 1.398 1.437 2.296 3.312 2.296zm6.828 2.665v-4.079h.125c.461.891 1.43 1.414 2.633 1.414 2.14 0 3.54-1.726 3.54-4.359 0-2.648-1.391-4.36-3.54-4.36-1.148 0-2.156.587-2.695 1.555h-.125V6.578h-1.281v11.235h1.343zm2.438-3.875c-1.516 0-2.477-1.22-2.477-3.149 0-1.937.961-3.148 2.485-3.148 1.539 0 2.46 1.18 2.46 3.148 0 1.969-.921 3.149-2.468 3.149zm8.312 1.21c1.125 0 2.047-.492 2.594-1.39h.125V15h1.281V9.234c0-1.75-1.148-2.804-3.203-2.804-1.797 0-3.125.89-3.304 2.242h1.359c.187-.664.89-1.047 1.898-1.047 1.258 0 1.907.57 1.907 1.61V10l-2.43.148c-1.961.118-3.07.985-3.07 2.493 0 1.539 1.21 2.507 2.843 2.507zm.25-1.18c-.976 0-1.703-.5-1.703-1.359 0-.843.563-1.289 1.844-1.375l2.266-.148v.773c0 1.204-1.024 2.11-2.407 2.11zm9.68 1.18c2.023 0 3.281-1.14 3.523-2.687h-1.359c-.25.953-1.039 1.476-2.172 1.476-1.5 0-2.468-1.234-2.468-3.18 0-1.905.953-3.116 2.468-3.116 1.211 0 1.953.68 2.172 1.515h1.36c-.235-1.5-1.485-2.726-3.532-2.726-2.36 0-3.86 1.703-3.86 4.328 0 2.68 1.509 4.39 3.868 4.39zm8.883 0c1.844 0 3.156-.89 3.547-2.328h-1.344c-.352.742-1.086 1.14-2.172 1.14-1.43 0-2.36-1.054-2.43-2.718v-.062h6.055v-.516c0-2.617-1.383-4.234-3.656-4.234-2.313 0-3.797 1.718-3.797 4.367 0 2.664 1.46 4.351 3.797 4.351zm2.242-5.054h-4.64c.101-1.492 1.038-2.477 2.382-2.477 1.336 0 2.227.985 2.258 2.477z" id="b"/><path d="M5.761 15V3.727H4.363l-3 2.156v1.484L4.23 5.29h.125V15h1.406zm10.657 0v-1.266h-5.344v-.125l2.562-2.648c2.032-2.102 2.594-3.04 2.594-4.336 0-1.828-1.508-3.164-3.476-3.164-2.157 0-3.704 1.437-3.704 3.445h1.36c0-1.336.898-2.218 2.25-2.218 1.328 0 2.133.89 2.133 2.085 0 .993-.422 1.579-1.86 3.133l-3.812 4.125V15h7.297zm6.172.266c2.242 0 3.968-1.414 3.968-3.305 0-1.57-.968-2.563-2.43-2.797V9.04c1.157-.336 2-1.234 2.008-2.594.008-1.578-1.273-2.984-3.5-2.984-2.28 0-3.68 1.352-3.82 3.187h1.367c.117-1.265 1-1.96 2.36-1.96 1.359 0 2.164.859 2.164 1.914 0 1.171-.922 2-2.22 2h-1.335v1.203h1.398c1.586 0 2.563.812 2.563 2.117 0 1.265-1.055 2.117-2.54 2.117-1.452 0-2.468-.758-2.593-1.945h-1.36c.102 1.914 1.68 3.172 3.97 3.172z" id="c"/><path d="M4.245 22v-7.502c0-1.707 1.224-3.077 2.808-3.077 1.527 0 2.526.92 2.526 2.358V22h1.932v-7.783c0-1.538 1.123-2.796 2.808-2.796 1.707 0 2.549.876 2.549 2.662V22H18.8v-8.367c0-2.538-1.382-3.953-3.852-3.953-1.674 0-3.055.842-3.706 2.123h-.18C10.5 10.545 9.355 9.68 7.715 9.68c-1.617 0-2.83.775-3.38 2.123h-.18v-1.91H2.313V22h1.932z" id="d"/><path d="M4.041 22v-7.165c0-2.123 1.247-3.414 3.178-3.414 1.932 0 2.853 1.033 2.853 3.212V22h1.931v-7.839c0-2.875-1.516-4.48-4.234-4.48-1.853 0-3.032.785-3.638 2.122h-.18v-1.91H2.11V22h1.932z" id="e"/><path d="M8.275 22.213c3.066 0 5.076-2.482 5.076-6.266 0-3.807-1.999-6.267-5.076-6.267-1.662 0-3.133.82-3.796 2.123h-.18V5.087H2.368V22h1.841v-1.932h.18c.764 1.348 2.201 2.145 3.886 2.145zm-.45-1.74c-2.2 0-3.57-1.73-3.57-4.526 0-2.797 1.37-4.526 3.57-4.526 2.213 0 3.527 1.696 3.527 4.526s-1.314 4.526-3.526 4.526z" id="f"/><path id="g" d="M7.488 22L11.97 9.894H9.903L6.59 19.866h-.18L3.097 9.894H1.031L5.51 22z"/><path d="M6.837 22.213c2.909 0 4.717-1.64 5.065-3.863H9.948c-.36 1.37-1.494 2.123-3.122 2.123-2.157 0-3.55-1.775-3.55-4.571 0-2.74 1.371-4.481 3.55-4.481 1.74 0 2.807.977 3.122 2.179h1.954c-.337-2.157-2.134-3.92-5.076-3.92-3.392 0-5.548 2.448-5.548 6.222 0 3.852 2.167 6.311 5.559 6.311z" id="h"/><path id="i" d="M3.512 22.034l2.875-4.571h.18l2.864 4.57h2.29l-4.166-6.131 4.11-5.975h-2.19l-2.84 4.504h-.18L3.58 9.927H1.278l4.189 6.053-4.144 6.054z"/><path id="j" d="M11.16 22v-1.617H4.177v-.18l6.951-8.86v-1.45H1.851v1.618h6.974v.18L1.84 20.584V22z"/><path id="k" d="M3.966 22V5.087H2.035V22z"/><path id="l" d="M4.12 22v-4.593l1.156-1.078L9.813 22h2.46l-5.56-6.918 5.211-5.188h-2.37L4.3 15.184h-.18V5.086H2.188V22z"/><path d="M3.023 7.558c.74 0 1.347-.607 1.347-1.348 0-.741-.606-1.348-1.347-1.348-.742 0-1.348.607-1.348 1.348 0 .741.606 1.348 1.348 1.348zM.26 26.155c2.538 0 3.706-1.067 3.706-3.56V9.894H2.034v12.735c0 1.336-.449 1.875-1.82 1.875h-.291v1.651H.26z" id="m"/><path d="M2.035 17V9.835c0-2.044 1.19-3.414 3.358-3.414 1.83 0 2.797 1.067 2.797 3.212V17h1.931V9.161c0-2.841-1.617-4.48-4.178-4.48-1.853 0-3.122.785-3.728 2.122h-.18V.087H.104V17h1.931z" id="n"/><path d="M6.298 17.65c3.301 0 5.39-1.73 5.39-4.437V.893H9.846v1.921h-.18C8.972 1.511 7.477.68 5.782.68 2.671.68.705 3.14.705 6.767c0 3.628 1.943 6.053 5.076 6.053 1.662 0 3.032-.752 3.796-2.089h.18v2.381c0 1.786-1.292 2.853-3.46 2.853-1.74 0-2.818-.64-3.032-1.629H1.221c.292 2 2.157 3.313 5.077 3.313zm-.09-6.537c-2.246 0-3.504-1.707-3.504-4.346 0-2.64 1.258-4.346 3.504-4.346 2.235 0 3.594 1.707 3.594 4.346 0 2.64-1.348 4.346-3.594 4.346z" id="o"/><path d="M4.899 18V7.51h2.773V5.895H4.9V4.602c0-1.325.584-1.999 1.976-1.999.348 0 .674.011.91.056V1.087A6.783 6.783 0 0 0 6.482.975c-2.302 0-3.515 1.156-3.515 3.57v1.349H.957V7.51h2.01V18h1.932z" id="p"/><path d="M6.736 22.213c1.674 0 3.111-.797 3.875-2.145h.18V22h1.841V5.087h-1.931v6.716h-.169C9.847 10.478 8.421 9.68 6.736 9.68c-3.077 0-5.087 2.47-5.087 6.267 0 3.807 1.988 6.266 5.087 6.266zm.45-1.74c-2.213 0-3.538-1.696-3.538-4.526 0-2.82 1.336-4.526 3.538-4.526 2.19 0 3.56 1.752 3.56 4.526 0 2.796-1.36 4.526-3.56 4.526z" id="q"/><path d="M6.455 22.213c2.751 0 4.851-1.493 4.851-3.66 0-1.741-1.1-2.73-3.38-3.28l-1.864-.45c-1.427-.347-2.1-.864-2.1-1.695 0-1.078 1.122-1.808 2.56-1.808 1.46 0 2.403.64 2.662 1.606h1.909c-.259-1.988-2.022-3.246-4.56-3.246-2.572 0-4.514 1.516-4.514 3.527 0 1.751 1.033 2.729 3.301 3.279l2.078.505c1.291.315 1.92.876 1.92 1.707 0 1.112-1.168 1.887-2.796 1.887-1.55 0-2.516-.651-2.841-1.673H1.693c.213 2.01 2.066 3.301 4.762 3.301z" id="r"/><path d="M5.343 22.213c1.618 0 2.943-.707 3.729-1.999h.18V22h1.841v-8.288c0-2.516-1.65-4.032-4.604-4.032-2.583 0-4.492 1.28-4.75 3.223h1.954c.27-.954 1.28-1.505 2.729-1.505 1.808 0 2.74.82 2.74 2.314v1.1l-3.493.214c-2.819.168-4.413 1.415-4.413 3.582 0 2.213 1.74 3.605 4.087 3.605zm.36-1.695c-1.404 0-2.448-.72-2.448-1.955 0-1.212.808-1.853 2.65-1.976l3.257-.213v1.111c0 1.73-1.471 3.033-3.46 3.033z" id="s"/><path d="M4.243 26.043v-5.862h.18c.662 1.28 2.055 2.032 3.784 2.032 3.077 0 5.088-2.482 5.088-6.266 0-3.807-2-6.267-5.088-6.267-1.65 0-3.1.842-3.874 2.235h-.18V9.894H2.311v16.149h1.932zm3.504-5.57c-2.179 0-3.56-1.752-3.56-4.526 0-2.785 1.381-4.526 3.571-4.526 2.213 0 3.538 1.696 3.538 4.526s-1.325 4.526-3.55 4.526z" id="t"/><path d="M7 22.213c3.448 0 5.582-2.38 5.582-6.266 0-3.897-2.134-6.267-5.582-6.267-3.447 0-5.581 2.37-5.581 6.267 0 3.886 2.134 6.266 5.581 6.266zm0-1.74c-2.29 0-3.582-1.662-3.582-4.526 0-2.875 1.291-4.526 3.582-4.526s3.583 1.65 3.583 4.526c0 2.864-1.292 4.526-3.583 4.526z" id="u"/><path d="M3 7.558c.741 0 1.348-.607 1.348-1.348 0-.741-.607-1.348-1.348-1.348-.741 0-1.348.607-1.348 1.348 0 .741.607 1.348 1.348 1.348zM3.966 22V9.894H2.034V22h1.932z" id="v"/><path d="M6.124 22.213c1.853 0 3.144-.763 3.75-2.11h.18V22h1.842V9.894H9.965v7.165c0 2.122-1.168 3.391-3.302 3.391-1.932 0-2.74-1.01-2.74-3.19V9.895H1.99v7.838c0 2.864 1.415 4.481 4.133 4.481z" id="w"/><path d="M3.109 26.38c2.145 0 3.11-.831 4.144-3.639L11.98 9.894H9.925l-3.313 9.961h-.18L3.11 9.894h-2.09L5.502 22.01l-.225.719c-.505 1.46-1.112 1.988-2.224 1.988a4.65 4.65 0 0 1-.808-.056v1.65c.27.045.606.068.865.068z" id="x"/><path d="M6.443 22.09a6.47 6.47 0 0 0 1.134-.112v-1.629c-.36.034-.55.045-.899.045-1.257 0-1.796-.606-1.796-2.033v-6.85h2.695V9.894H4.882V6.76H2.95v3.134H.996v1.617H2.95v7.344c0 2.314 1 3.235 3.493 3.235z" id="y"/><path d="M3.871 22v-7.502c0-1.707 1.336-2.942 3.178-2.942.382 0 1.078.067 1.236.112V9.736a8.295 8.295 0 0 0-.966-.056c-1.606 0-2.999.831-3.358 2.01h-.18V9.894H1.94V22h1.932z" id="z"/><path d="M7.1 22.213c2.651 0 4.538-1.28 5.1-3.346h-1.932c-.505 1.067-1.561 1.64-3.122 1.64-2.055 0-3.392-1.517-3.493-3.909v-.09h8.704v-.74c0-3.763-1.988-6.088-5.256-6.088-3.324 0-5.458 2.47-5.458 6.278 0 3.83 2.1 6.255 5.458 6.255zm3.224-7.266h-6.67c.145-2.145 1.493-3.56 3.424-3.56 1.92 0 3.201 1.415 3.246 3.56z" id="A"/><path id="B" d="M6.203 22L8.9 12.634h.18L11.784 22h1.965l3.392-12.106h-1.943l-2.38 9.68h-.18l-2.707-9.68H8.079l-2.707 9.68h-.18l-2.38-9.68H.858L4.249 22z"/><path d="M12.688 26.043V9.893h-1.864v2.022h-.18C9.926 10.556 8.421 9.68 6.77 9.68c-3.066 0-5.065 2.47-5.065 6.267 0 3.818 1.976 6.266 5.065 6.266 1.707 0 3.01-.707 3.785-2.032h.18v5.862h1.953zm-5.48-5.57c-2.201 0-3.504-1.685-3.504-4.526 0-2.83 1.314-4.526 3.515-4.526 2.19 0 3.571 1.752 3.571 4.526 0 2.785-1.37 4.526-3.582 4.526z" id="C"/></defs><g fill="none" fill-rule="evenodd"><path fill="#375DD5" fill-rule="nonzero" d="M0 0h375v216H0z"/><path fill="#687089" fill-rule="nonzero" d="M0 0h375v216H0z"/><g transform="translate(284 170)" fill-rule="nonzero"><rect fill="#FFF" opacity=".31" width="88" height="42" rx="5"/><g transform="translate(22 11)"><use fill="#000" xlink:href="#a"/><use fill="#FFF" xlink:href="#a"/></g></g><g transform="translate(134 170)" fill-rule="nonzero"><rect fill="#FFF" opacity=".31" width="144.5" height="42" rx="5"/><g transform="translate(49 11)"><use fill="#000" xlink:href="#b"/><use fill="#FFF" xlink:href="#b"/></g></g><g transform="translate(96.5 170)"><rect fill="#FFF" fill-rule="nonzero" opacity=".31" width="32" height="42" rx="5"/><path d="M21 19.061l-10-.028v3.463A4.501 4.501 0 0 0 15.501 27h.998A4.501 4.501 0 0 0 21 22.499v-3.438z" stroke="#FFF"/><path d="M13.5 14.997v7.006a2.5 2.5 0 1 0 5 0v-7.006a2.5 2.5 0 1 0-5 0zm-1 0a3.5 3.5 0 0 1 7 0v7.006a3.5 3.5 0 0 1-7 0v-7.006zM15.5 27v3.938h1V27h-1z" fill="#FFF" fill-rule="nonzero"/><path fill="#FFF" fill-rule="nonzero" d="M12.5 31.5h7v-1h-7z"/></g><g transform="translate(49 170)" fill="#FFF" fill-rule="nonzero"><rect opacity=".31" width="42" height="42" rx="5"/><path d="M14.094 28.268c.067-.076.211-.22.431-.412a9.178 9.178 0 0 1 1.33-.958A9.874 9.874 0 0 1 20.91 25.5c1.932-.013 3.666.535 5.177 1.458.522.32.98.661 1.367 1.002.158.139.31.284.454.435l.747-.664a6.552 6.552 0 0 0-.54-.522c-.43-.378-.933-.754-1.507-1.104-1.66-1.015-3.573-1.62-5.705-1.605a10.865 10.865 0 0 0-7.035 2.602 5.72 5.72 0 0 0-.524.505l.75.661zm-.75-12.812c.095.107.27.283.524.505.417.363.909.725 1.474 1.062a10.868 10.868 0 0 0 5.56 1.54c2.133.014 4.045-.59 5.706-1.605.574-.35 1.077-.727 1.506-1.104a6.41 6.41 0 0 0 .541-.522l-.747-.664c-.016.017-.051.055-.107.11-.112.112-.228.22-.347.325a9.98 9.98 0 0 1-1.367 1.002c-1.511.923-3.245 1.47-5.177 1.458a9.874 9.874 0 0 1-5.056-1.399 9.178 9.178 0 0 1-1.329-.957 5.077 5.077 0 0 1-.431-.413l-.75.662z"/><path d="M20.5 12.5h1V31h-1z"/><path d="M11 21h20v1H11z"/><path d="M21.262 30.5c2.093 0 4.238-4.033 4.238-9s-2.145-9-4.238-9c-2.555 0-4.762 3.885-4.762 9s2.207 9 4.762 9zm0 1c-3.3 0-5.762-4.477-5.762-10s2.462-10 5.762-10c2.776 0 5.238 4.477 5.238 10s-2.462 10-5.238 10z"/><path d="M21 30.5a9 9 0 1 0 0-18 9 9 0 0 0 0 18zm0 1c-5.523 0-10-4.477-10-10s4.477-10 10-10 10 4.477 10 10-4.477 10-10 10z"/></g><g transform="translate(3 170)" fill-rule="nonzero"><rect fill="#FFF" opacity=".31" width="40" height="42" rx="5"/><g transform="translate(6 11)"><use fill="#000" xlink:href="#c"/><use fill="#FFF" xlink:href="#c"/></g></g><g transform="translate(330 118)" fill="#FFF" fill-rule="nonzero"><rect opacity=".31" width="42" height="42" rx="5"/><path d="M18.414 14l-7 7 7 7h11.588c.542 0 .998-.471.998-1.067V15.067c0-.594-.456-1.067-.998-1.067H18.414zM32 15.067v11.866C32 28.075 31.103 29 30.002 29H18l-8-8 8-8h12.002c1.103 0 1.998.93 1.998 2.067zm-8.5 5.226l-3.182-3.182-.707.707L22.793 21l-3.182 3.182.707.707 3.182-3.182 3.182 3.182.707-.707L24.207 21l3.182-3.182-.707-.707-3.182 3.182z"/></g><g transform="translate(3 118)"><rect fill="#FFF" fill-rule="nonzero" opacity=".31" width="42" height="42" rx="5"/><path d="M24.645 22.359l4.411.007c.551 0 .679-.315.288-.706l-8.366-8.367a1 1 0 0 0-1.417.002l-8.332 8.333c-.396.395-.264.71.286.71l4.13.007v4.18a2 2 0 0 0 1.997 2h5.005a2 2 0 0 0 1.998-2v-4.166h0z" stroke="#FFF"/></g><g fill-rule="nonzero"><g transform="translate(284 118)"><rect fill="#FFF" opacity=".31" width="32" height="42" rx="5"/><g transform="translate(6 6)"><use fill="#000" xlink:href="#d"/><use fill="#FFF" xlink:href="#d"/></g></g><g transform="translate(246.5 118)"><rect fill="#FFF" opacity=".31" width="32" height="42" rx="5"/><g transform="translate(9 6)"><use fill="#000" xlink:href="#e"/><use fill="#FFF" xlink:href="#e"/></g></g><g transform="translate(209 118)"><rect fill="#FFF" opacity=".31" width="32" height="42" rx="5"/><g transform="translate(9 6)"><use fill="#000" xlink:href="#f"/><use fill="#FFF" xlink:href="#f"/></g></g><g transform="translate(171.5 118)"><rect fill="#FFF" opacity=".31" width="32" height="42" rx="5"/><g transform="translate(10 6)"><use fill="#000" xlink:href="#g"/><use fill="#FFF" xlink:href="#g"/></g></g><g transform="translate(134 118)"><rect fill="#FFF" opacity=".31" width="32" height="42" rx="5"/><g transform="translate(10 6)"><use fill="#000" xlink:href="#h"/><use fill="#FFF" xlink:href="#h"/></g></g><g transform="translate(96.5 118)"><rect fill="#FFF" opacity=".31" width="32" height="42" rx="5"/><g transform="translate(10 6)"><use fill="#000" xlink:href="#i"/><use fill="#FFF" xlink:href="#i"/></g></g><g transform="translate(59 118)"><rect fill="#FFF" opacity=".31" width="32" height="42" rx="5"/><g transform="translate(10 6)"><use fill="#000" xlink:href="#j"/><use fill="#FFF" xlink:href="#j"/></g></g></g><g fill-rule="nonzero"><g transform="translate(321.5 64)"><rect fill="#FFF" opacity=".31" width="32" height="42" rx="5"/><g transform="translate(13 6)"><use fill="#000" xlink:href="#k"/><use fill="#FFF" xlink:href="#k"/></g></g><g transform="translate(284 64)"><rect fill="#FFF" opacity=".31" width="32" height="42" rx="5"/><g transform="translate(10 6)"><use fill="#000" xlink:href="#l"/><use fill="#FFF" xlink:href="#l"/></g></g><g transform="translate(246.5 64)"><rect fill="#FFF" opacity=".31" width="32" height="42" rx="5"/><g transform="translate(13 6)"><use fill="#000" xlink:href="#m"/><use fill="#FFF" xlink:href="#m"/></g></g><g transform="translate(209 64)"><rect fill="#FFF" opacity=".31" width="32" height="42" rx="5"/><g transform="translate(11 11)"><use fill="#000" xlink:href="#n"/><use fill="#FFF" xlink:href="#n"/></g></g><g transform="translate(171.5 64)"><rect fill="#FFF" opacity=".31" width="32" height="42" rx="5"/><g transform="translate(10 15)"><use fill="#000" xlink:href="#o"/><use fill="#FFF" xlink:href="#o"/></g></g><g transform="translate(134 64)"><rect fill="#FFF" opacity=".31" width="32" height="42" rx="5"/><g transform="translate(12 10)"><use fill="#000" xlink:href="#p"/><use fill="#FFF" xlink:href="#p"/></g></g><g transform="translate(96.5 64)"><rect fill="#FFF" opacity=".31" width="32" height="42" rx="5"/><g transform="translate(9 6)"><use fill="#000" xlink:href="#q"/><use fill="#FFF" xlink:href="#q"/></g></g><g transform="translate(59.5 64)"><rect fill="#FFF" opacity=".31" width="32" height="42" rx="5"/><g transform="translate(10 6)"><use fill="#000" xlink:href="#r"/><use fill="#FFF" xlink:href="#r"/></g></g><g transform="translate(22 64)"><rect fill="#FFF" opacity=".31" width="32" height="42" rx="5"/><g transform="translate(10 6)"><use fill="#000" xlink:href="#s"/><use fill="#FFF" xlink:href="#s"/></g></g></g><g fill-rule="nonzero"><g transform="translate(340 10)"><rect fill="#FFF" opacity=".31" width="32" height="42" rx="5"/><g transform="translate(9 6)"><use fill="#000" xlink:href="#t"/><use fill="#FFF" xlink:href="#t"/></g></g><g transform="translate(302.5 10)"><rect fill="#FFF" opacity=".31" width="32" height="42" rx="5"/><g transform="translate(9 6)"><use fill="#000" xlink:href="#u"/><use fill="#FFF" xlink:href="#u"/></g></g><g transform="translate(265 10)"><rect fill="#FFF" opacity=".31" width="32" height="42" rx="5"/><g transform="translate(13 6)"><use fill="#000" xlink:href="#v"/><use fill="#FFF" xlink:href="#v"/></g></g><g transform="translate(227.5 10)"><rect fill="#FFF" opacity=".31" width="32" height="42" rx="5"/><g transform="translate(9 6)"><use fill="#000" xlink:href="#w"/><use fill="#FFF" xlink:href="#w"/></g></g><g transform="translate(190 10)"><rect fill="#FFF" opacity=".31" width="32" height="42" rx="5"/><g transform="translate(10 6)"><use fill="#000" xlink:href="#x"/><use fill="#FFF" xlink:href="#x"/></g></g><g transform="translate(152.5 10)"><rect fill="#FFF" opacity=".31" width="32" height="42" rx="5"/><g transform="translate(12 6)"><use fill="#000" xlink:href="#y"/><use fill="#FFF" xlink:href="#y"/></g></g><g transform="translate(115 10)"><rect fill="#FFF" opacity=".31" width="32" height="42" rx="5"/><g transform="translate(12 6)"><use fill="#000" xlink:href="#z"/><use fill="#FFF" xlink:href="#z"/></g></g><g transform="translate(77.5 10)"><rect fill="#FFF" opacity=".31" width="32" height="42" rx="5"/><g transform="translate(9 6)"><use fill="#000" xlink:href="#A"/><use fill="#FFF" xlink:href="#A"/></g></g><g transform="translate(40.5 10)"><rect fill="#FFF" opacity=".31" width="32" height="42" rx="5"/><g transform="translate(7 6)"><use fill="#000" xlink:href="#B"/><use fill="#FFF" xlink:href="#B"/></g></g><g transform="translate(3 10)"><rect fill="#FFF" opacity=".31" width="32" height="42" rx="5"/><g transform="translate(9 6)"><use fill="#000" xlink:href="#C"/><use fill="#FFF" xlink:href="#C"/></g></g></g></g></svg>